<svg xmlns="http://www.w3.org/2000/svg" xmlns:xlink="http://www.w3.org/1999/xlink" width="16" height="16" viewBox="0 0 16 16"><title>favicon</title><defs><filter id="c" width="106.2%" height="106.2%" x="-3.1%" y="-3.1%" filterUnits="objectBoundingBox"><feGaussianBlur in="SourceAlpha" result="shadowBlurInner1" stdDeviation=".5"/><feOffset in="shadowBlurInner1" result="shadowOffsetInner1"/><feComposite in="shadowOffsetInner1" in2="SourceAlpha" k2="-1" k3="1" operator="arithmetic" result="shadowInnerInner1"/><feColorMatrix in="shadowInnerInner1" values="0 0 0 0 1 0 0 0 0 1 0 0 0 0 1 0 0 0 1 0"/></filter><filter id="g" width="168%" height="177.8%" x="-34%" y="-38.9%" filterUnits="objectBoundingBox"><feGaussianBlur in="SourceGraphic" stdDeviation="2"/></filter><filter id="h" width="209.9%" height="216.7%" x="-54.9%" y="-58.3%" filterUnits="objectBoundingBox"><feGaussianBlur in="SourceGraphic" stdDeviation="2"/></filter><filter id="i" width="229.9%" height="227.3%" x="-64.9%" y="-63.6%" filterUnits="objectBoundingBox"><feGaussianBlur in="SourceGraphic" stdDeviation="2"/></filter><path id="a" d="M5.128 0h5.744c1.783 0 2.43.186 3.082.534s1.163.86 1.512 1.512c.348.652.534 1.299.534 3.082v5.744c0 1.783-.186 2.43-.534 3.082a3.64 3.64 0 0 1-1.512 1.512c-.652.348-1.299.534-3.082.534H5.128c-1.783 0-2.43-.186-3.082-.534a3.64 3.64 0 0 1-1.512-1.512C.186 13.302 0 12.655 0 10.872V5.128c0-1.783.186-2.43.534-3.082A3.64 3.64 0 0 1 2.046.534C2.698.186 3.345 0 5.128 0"/><path id="e" d="M10 0v10H0V0zM9 2H1v6h8z"/><linearGradient id="b" x1="50%" x2="50%" y1="0%" y2="100%"><stop offset="0%" stop-color="#fff"/><stop offset="100%" stop-color="#ebebec"/></linearGradient></defs><g fill="none" fill-rule="evenodd"><mask id="d" fill="#fff"><use xlink:href="#a"/></mask><use xlink:href="#a" fill="url(#b)"/><use xlink:href="#a" fill="#000" filter="url(#c)"/><g mask="url(#d)"><g transform="translate(3 3)"><mask id="f" fill="#fff"><use xlink:href="#e"/></mask><use xlink:href="#e" fill="#ff0069"/><g mask="url(#f)"><g fill-rule="nonzero" transform="translate(-6 -5)"><ellipse cx="8.82" cy="7.714" fill="#d300c5" filter="url(#g)" rx="8.82" ry="7.714"/><ellipse cx="15.54" cy="6" fill="#7638fa" filter="url(#h)" rx="5.46" ry="5.143"/><ellipse cx="11.34" cy="13.286" fill="#ff0069" filter="url(#i)" rx="4.62" ry="4.714"/></g></g></g></g></g></svg>