<svg xmlns="http://www.w3.org/2000/svg" xmlns:xlink="http://www.w3.org/1999/xlink" width="16" height="16" viewBox="0 0 16 16"><title>favicon</title><defs><filter id="e" width="168%" height="177.8%" x="-34%" y="-38.9%" filterUnits="objectBoundingBox"><feGaussianBlur in="SourceGraphic" stdDeviation="2"/></filter><filter id="f" width="209.9%" height="216.7%" x="-54.9%" y="-58.3%" filterUnits="objectBoundingBox"><feGaussianBlur in="SourceGraphic" stdDeviation="2"/></filter><filter id="g" width="229.9%" height="227.3%" x="-64.9%" y="-63.6%" filterUnits="objectBoundingBox"><feGaussianBlur in="SourceGraphic" stdDeviation="2"/></filter><path id="a" d="M4.4867991,-1.81272054e-16 L11.5132009,1.81272054e-16 C13.0733587,-1.05324284e-16 13.6391096,0.16244482 14.20948,0.467482232 C14.7798504,0.772519644 15.2274804,1.22014965 15.5325178,1.79052002 C15.8375552,2.36089039 16,2.92664131 16,4.4867991 L16,11.5132009 C16,13.0733587 15.8375552,13.6391096 15.5325178,14.20948 C15.2274804,14.7798504 14.7798504,15.2274804 14.20948,15.5325178 C13.6391096,15.8375552 13.0733587,16 11.5132009,16 L4.4867991,16 C2.92664131,16 2.36089039,15.8375552 1.79052002,15.5325178 C1.22014965,15.2274804 0.772519644,14.7798504 0.467482232,14.20948 C0.16244482,13.6391096 7.0216189e-17,13.0733587 -1.20848036e-16,11.5132009 L1.20848036e-16,4.4867991 C-7.0216189e-17,2.92664131 0.16244482,2.36089039 0.467482232,1.79052002 C0.772519644,1.22014965 1.22014965,0.772519644 1.79052002,0.467482232 C2.36089039,0.16244482 2.92664131,1.05324284e-16 4.4867991,-1.81272054e-16 Z"/><path id="c" d="M10,0 L10,10 L0,10 L0,0 L10,0 Z M9.16666667,1.66666667 L0.833333333,1.66666667 L0.833333333,8.33333333 L9.16666667,8.33333333 L9.16666667,1.66666667 Z"/></defs><g fill="none" fill-rule="evenodd"><mask id="b" fill="#fff"><use xlink:href="#a"/></mask><use xlink:href="#a" fill="#FFF"/><g mask="url(#b)"><g transform="translate(3.000000, 3.000000)"><mask id="d" fill="#fff"><use xlink:href="#c"/></mask><use xlink:href="#c" fill="#FF0069"/><g mask="url(#d)"><g fill-rule="nonzero" transform="translate(-6.000000, -5.000000)"><ellipse cx="8.82" cy="7.714" fill="#D300C5" filter="url(#e)" rx="8.82" ry="7.714"/><ellipse cx="15.54" cy="6" fill="#7638FA" filter="url(#f)" rx="5.46" ry="5.143"/><ellipse cx="11.34" cy="13.286" fill="#FF0069" filter="url(#g)" rx="4.62" ry="4.714"/></g></g></g></g></g></svg>